<svg version="1.1" xmlns="http://www.w3.org/2000/svg" style="display: block;" viewBox="0 0 2048 757" width="1158" height="428" preserveAspectRatio="none">
<path transform="translate(0,0)" fill="rgb(103,186,250)" fill-opacity="0.988235" d="M 2045.53 136.855 L 2048 144.373 L 2048 725.537 C 2043.31 742.801 2034.68 752.968 2016.63 757 L 992.811 757 C 1007.95 753.787 1053.62 754.495 1070.45 754.482 L 1196.28 754.365 L 1767.31 753.944 L 1929.51 753.916 C 1943.12 753.918 1992.33 754.95 2003.53 753.28 C 2005.71 753.274 2007.89 753.231 2010.06 753.153 C 2032.2 752.338 2043.5 738.733 2043.95 717.288 C 2044.52 689.775 2044.4 662.383 2044.41 634.871 L 2044.42 475.088 L 2044.41 262.801 C 2044.41 225.761 2045.56 181.585 2043.82 145.277 C 2044.3 142.504 2044.95 139.623 2045.53 136.855 z"/>
<path transform="translate(0,0)" fill="rgb(20,177,169)" d="M 4.51597 728.235 C 11.3128 745.242 20.8151 752.824 39.7217 753.315 C 54.8452 753.708 69.9698 753.531 85.0998 753.501 L 164.144 753.429 L 415.241 753.409 L 1469.64 753.221 L 1824.37 753.172 C 1882.56 753.174 1945.64 751.933 2003.53 753.28 C 1992.33 754.95 1943.12 753.918 1929.51 753.916 L 1767.31 753.944 L 1196.28 754.365 L 1070.45 754.482 C 1053.62 754.495 1007.95 753.787 992.811 757 L 31.1689 757 C 29.2953 756.52 27.4488 755.939 25.6373 755.261 C 12.5196 750.298 7.28483 744.144 1.70154 731.704 L 4.51597 728.235 z"/>
<path transform="translate(0,0)" fill="rgb(103,186,250)" fill-opacity="0.988235" d="M 1026.15 56.8609 C 1049.44 57.4174 1075.09 59.3837 1098.54 60.7404 L 1223.43 67.9349 L 1607.37 89.8907 L 1882.1 105.666 L 1969.05 110.57 C 1991.76 111.85 2038.42 108.08 2045.53 136.855 C 2044.95 139.623 2044.3 142.504 2043.82 145.277 C 2037.39 112.241 2005.51 116.368 1979.25 114.877 L 1911.32 111.005 L 1695.88 98.6518 L 1033.36 60.6162 C 1030.29 57.9596 1030.79 58.718 1026.2 57.762 L 1026.15 56.8609 z"/>
<path transform="translate(0,0)" fill="rgb(20,177,169)" d="M 109.596 4.19916 C 130.199 4.08336 162.488 7.11626 183.818 8.36646 L 325.002 16.3691 L 767.521 41.745 L 960.684 52.769 C 970.754 53.337 1019.39 54.7365 1026.15 56.8609 L 1026.2 57.762 C 1030.79 58.718 1030.29 57.9596 1033.36 60.6162 L 397.463 24.1505 L 196.099 12.5853 L 138.011 9.37093 C 129.074 8.89637 113.716 8.51235 105.262 7.19422 C 103.733 6.58843 103.426 6.40093 102.093 5.43652 C 104.859 5.24757 106.887 4.77403 109.596 4.19916 z"/>
<path transform="translate(0,0)" fill="rgb(20,177,169)" fill-opacity="0.988235" d="M 31.3867 0 L 47.8489 0 C 60.073 2.38853 94.5563 2.947 109.596 4.19916 C 106.887 4.77403 104.859 5.24757 102.093 5.43652 C 103.426 6.40093 103.733 6.58843 105.262 7.19422 C 82.6598 6.66919 53.1829 2.67685 31.4199 4.5071 C 14.7746 5.90695 1.69432 24.8243 3.87751 40.1222 C 3.55535 204.83 3.7179 369.525 3.73085 534.225 L 3.71965 667.712 C 3.70349 678.266 3.07338 720.899 4.51597 728.235 L 1.70154 731.704 L 0 725.87 L 0 31.4405 C 4.64605 12.5997 13.2292 5.2661 31.3867 0 z"/>
</svg>