<svg version="1.1" xmlns="http://www.w3.org/2000/svg" style="display: block;" viewBox="0 0 1152 1076" width="288" height="269" preserveAspectRatio="none">
<path transform="translate(0,0)" fill="rgb(160,184,211)" d="M 926.011 891.509 C 932.759 892.261 936.46 891.346 942.976 890.114 C 945.609 894.158 947.666 897.324 950.727 901.114 C 953.141 921.855 951.926 919.732 944.37 938.368 C 961.831 944.195 944.31 976.122 930.919 975.168 C 927.454 972.691 923.962 971.813 921.859 969.228 C 920.746 963.041 933.959 942.849 937.759 937.184 L 942.682 927.182 C 932.9 919.686 929.825 903.691 926.011 891.509 z"/>
<path transform="translate(0,0)" fill="rgb(160,184,211)" d="M 839.552 955.418 C 847.54 949.706 867.494 934.001 876.974 942.745 C 878.745 948.102 875.306 951.817 872.471 956.185 C 868.375 958.18 862.875 960.119 861.047 964.2 C 863.875 968.93 866.213 977.742 864.13 983.078 C 853.683 992.105 835.405 971.106 826.81 964.156 C 830.541 961.224 835.534 958.093 839.552 955.418 z"/>
<path transform="translate(0,0)" fill="rgb(213,213,215)" d="M 839.552 955.418 C 847.54 949.706 867.494 934.001 876.974 942.745 C 878.745 948.102 875.306 951.817 872.471 956.185 C 868.375 958.18 862.875 960.119 861.047 964.2 C 859.85 966.188 860.629 965.375 858.498 966.593 C 857.095 966.572 840.967 956.872 839.552 955.418 z"/>
<path transform="translate(0,0)" fill="rgb(160,184,211)" d="M 156.484 292.038 C 160.773 285.283 167.577 273.198 177.526 277.119 C 182.725 286.409 173.02 290.27 169.133 295.634 C 178.049 303.08 188.013 295.906 188.312 313.882 C 182.733 323.3 156.894 315.547 148.253 312.669 C 145.875 310.685 145.805 307.717 145.304 304.625 C 149.366 297.343 153.758 305.672 156.484 292.038 z"/>
<path transform="translate(0,0)" fill="rgb(213,213,215)" d="M 156.484 292.038 C 160.773 285.283 167.577 273.198 177.526 277.119 C 182.725 286.409 173.02 290.27 169.133 295.634 C 166.476 299.48 161.131 299.775 157.34 297.118 L 156.484 292.038 z"/>
<path transform="translate(0,0)" fill="rgb(160,184,211)" d="M 88.0782 215.266 C 98.3039 219.639 99.8776 214.004 108.937 218.351 C 113.076 222.542 114.276 249.492 110.366 253.776 C 107.224 256.765 103.559 259.125 99.9831 261.584 C 89.7539 244.079 89.2401 234.526 88.0782 215.266 z"/>
<path transform="translate(0,0)" fill="rgb(160,184,211)" d="M 271.666 181.156 C 273.589 181.275 276.227 181.254 277.922 181.993 L 278.117 189.817 C 279.541 200.07 282.574 228.215 278.054 237.078 L 276.46 237.936 C 267.906 234.115 269.523 238.422 265.42 235.407 C 264.577 230.09 261.924 201.875 263.531 198.301 C 264.033 191.836 263.526 189.761 266.732 184.135 L 271.666 181.156 z"/>
<path transform="translate(0,0)" fill="rgb(218,216,219)" d="M 271.666 181.156 C 273.589 181.275 276.227 181.254 277.922 181.993 L 278.117 189.817 L 277.532 199.029 C 274.815 200.811 268.064 200.333 264.54 200.214 L 263.531 198.301 C 264.033 191.836 263.526 189.761 266.732 184.135 L 271.666 181.156 z"/>
<path transform="translate(0,0)" fill="rgb(160,184,211)" d="M 154.89 136.21 C 161.4 135.741 165.939 134.38 170.81 138.134 C 172.648 141.847 171.832 147.039 171.572 151.315 C 163.237 156.25 156.047 158.959 146.535 160.577 C 140.088 162.28 132.539 163.569 128.821 156.688 C 127.623 144.485 145.541 138.437 154.89 136.21 z"/>
<path transform="translate(0,0)" fill="rgb(160,184,211)" d="M 266.732 184.135 C 261.466 183.864 253.878 185.857 248.643 183.722 C 234.212 177.835 218.126 147.814 247.518 154.448 C 256.792 156.541 257.526 164.714 266.146 169.874 L 267.055 170.41 C 265.789 175.838 268.076 176.962 271.666 181.156 L 266.732 184.135 z"/>
<path transform="translate(0,0)" fill="rgb(218,216,219)" d="M 481.536 1032.17 C 494.783 1032.01 507.172 1030.91 519.471 1035.93 C 519.53 1041.88 519.204 1048.78 519.058 1054.8 C 510.742 1053.68 501.81 1054.13 493.403 1053.11 C 478.66 1051.34 479.718 1043.94 481.536 1032.17 z"/>
<path transform="translate(0,0)" fill="rgb(160,184,211)" d="M 834.739 900.14 L 835.82 900.28 C 838.508 903.187 834.762 902.949 836.669 907.715 C 850.675 913.253 838.848 929.859 835.62 939.659 C 835.158 941.06 832.462 940.836 831.226 940.894 C 827.993 941.285 824.968 942.001 822.054 940.584 C 818.855 936.523 820.605 909.966 821.19 903.896 C 827.34 902.909 829.004 902.521 834.739 900.14 z"/>
<path transform="translate(0,0)" fill="rgb(218,216,219)" d="M 677.559 1023.73 C 681.431 1027.94 680.28 1045.02 676.426 1048.3 C 671.066 1052.86 652.793 1049.72 644.52 1050.01 C 643.949 1041.39 643.234 1041.73 640.303 1034.39 C 644.309 1031.17 666.422 1029.92 672.774 1029.33 C 674.462 1027.62 676.032 1025.6 677.559 1023.73 z"/>
<path transform="translate(0,0)" fill="rgb(160,184,211)" d="M 263.117 249.962 C 269.117 249.253 273.624 248.983 276.64 254.668 C 277.334 264.478 267.7 277.149 262.617 286.092 C 256.174 283.56 249.106 284.897 244.729 277.767 C 240.838 271.43 249.661 266.278 253.971 264.486 C 256.357 256.538 256.673 254.956 263.117 249.962 z"/>
<path transform="translate(0,0)" fill="rgb(218,216,219)" d="M 237.085 914.788 C 251.013 916.202 270.256 922.304 271.167 939.94 C 271.387 944.205 271.743 947.345 269.35 950.813 C 262.035 949.123 260.943 947.748 257.16 941.378 C 247.592 938.033 246.343 936.658 237.968 930.753 C 236.736 925.178 235.365 920.295 237.085 914.788 z"/>
<path transform="translate(0,0)" fill="rgb(218,216,219)" d="M 982.704 815.98 C 983.178 816.156 984.382 817.118 984.866 817.478 C 989.314 827.577 976.731 844.986 969.434 852.29 C 967.616 854.111 963.986 852.715 961.785 852.069 C 938.245 845.406 971.348 818.791 982.704 815.98 z"/>
<path transform="translate(0,0)" fill="rgb(218,216,219)" d="M 328.905 976.438 C 331.83 977.536 333.224 980.68 336.007 981.762 C 346.673 985.911 365.716 985.674 363.224 1002.05 C 362.831 1004.63 364.762 1005.03 362.766 1008.93 C 353.119 1006.29 338.425 1000.75 329.434 996.916 C 326.927 993.914 324.859 990.356 322.792 987.018 C 324.774 983.459 326.812 979.932 328.905 976.438 z"/>
<path transform="translate(0,0)" fill="rgb(160,184,211)" d="M 888.61 858.314 C 903.444 859.736 907.697 861.523 921.164 867.034 C 918.353 872.155 919.47 879.489 921.769 884.759 C 914.373 885.339 899.9 881.377 889.231 881.998 C 887.825 872.954 888.033 867.316 888.61 858.314 z"/>
<path transform="translate(0,0)" fill="rgb(160,184,211)" d="M 869.343 866.689 C 869.951 866.592 870.069 866.9 870.874 867.401 C 872.322 871.763 871.828 877.626 871.736 882.344 C 863.539 886.438 849.36 895.739 841.394 894.338 C 825.767 886.616 844.909 874.429 852.673 870.39 C 858.236 867.495 863.27 867.383 869.343 866.689 z"/>
<path transform="translate(0,0)" fill="rgb(218,216,219)" d="M 621.706 70.3181 C 638.582 75.4663 647.653 76.6381 665.062 76.5808 C 663.563 81.495 662.532 85.1403 661.473 90.1758 C 650.629 89.7838 627.59 94.263 620.641 85.5563 C 618.58 80.591 620.001 75.2069 621.706 70.3181 z"/>
<path transform="translate(0,0)" fill="rgb(218,216,219)" d="M 1044.18 507.446 C 1051.13 509.077 1056.73 507.661 1061.73 509.47 C 1064.55 514.19 1064.04 538.056 1063.42 544.136 C 1058.79 544.413 1050.7 542.358 1047.43 544.417 L 1046.2 544.087 C 1044.82 537.575 1044.82 516.001 1044.18 507.446 z"/>
<path transform="translate(0,0)" fill="rgb(218,216,219)" d="M 775.203 993.818 L 778.039 995.044 C 780.228 997.946 782.656 1000.36 782.944 1003.81 C 781.461 1010.68 757.815 1021.48 754.602 1020.88 C 729.96 1014.62 747.321 1001.94 761.794 999.741 C 765.811 999.131 771.519 995.922 775.203 993.818 z"/>
<path transform="translate(0,0)" fill="rgb(160,184,211)" d="M 179.504 135.449 C 189.774 137.975 203.352 133.662 213.738 135.552 C 223.678 137.361 220.859 145.849 219.267 152.806 L 217.47 153.614 C 209.121 151.554 182.757 151.29 180.502 149.8 C 177.577 144.972 178.67 140.936 179.504 135.449 z"/>
<path transform="translate(0,0)" fill="rgb(213,213,215)" d="M 933.177 871.845 C 935.958 868.339 939.14 863.629 942.98 861.619 C 946.707 861.442 945.201 861.155 948.772 863.152 C 954.548 870.952 944.591 881.682 942.976 890.114 C 936.46 891.346 932.759 892.261 926.011 891.509 C 924.28 886.811 925.247 887.255 921.769 884.759 C 919.47 879.489 918.353 872.155 921.164 867.034 C 926.181 868.63 928.464 869.514 933.177 871.845 z"/>
<path transform="translate(0,0)" fill="rgb(218,216,219)" d="M 536.458 1039.69 C 543.964 1040.8 565.026 1039.96 573.498 1039.79 C 571.956 1045.51 571.842 1052.61 571.063 1058.76 C 567.148 1058.29 561.243 1057.42 557.456 1057.56 C 540.764 1058.19 532.04 1059.75 536.458 1039.69 z"/>
<path transform="translate(0,0)" fill="rgb(218,216,219)" d="M 522.263 69.32 C 530.956 68.912 537.65 68.7845 546.336 69.0649 C 546.132 74.9519 545.539 78.57 544.588 84.2845 C 542.072 85.5201 537.561 87.0619 534.781 88.0996 C 504.697 95.4121 503.523 73.7966 522.263 69.32 z"/>
<path transform="translate(0,0)" fill="rgb(160,184,211)" d="M 114.353 167.974 C 118.967 168.112 121.396 168.57 123.788 172.955 C 125.802 183.684 115.394 198.122 105.826 202.325 C 104.377 202.412 102.926 202.186 101.573 201.662 C 88.4839 196.726 104.362 171.9 114.353 167.974 z"/>
<path transform="translate(0,0)" fill="rgb(218,216,219)" d="M 594.299 68.527 C 597.434 68.1218 599.352 67.6002 602.348 68.5904 C 607.335 73.8963 604.712 78.7886 601.598 84.2718 C 598.071 85.3337 578.24 83.4833 573.815 82.8945 C 571.007 83.5914 569.431 84.224 566.584 83.4692 C 563.581 81.1028 563.364 80.5869 561.753 77.2278 C 561.773 73.2794 561.269 74.7603 563.615 71.6403 C 571.104 67.6036 585.258 68.5997 594.299 68.527 z"/>
<path transform="translate(0,0)" fill="rgb(218,216,219)" d="M 379.268 1000.67 C 382.209 1001.09 388.182 1004.04 391.457 1005.27 C 398.418 1007.9 403.422 1009.32 410.654 1010.84 C 411.649 1015.94 413.831 1021.06 409.95 1024.88 L 406.686 1024.43 C 396.731 1028.35 370.668 1016.73 373.253 1005.04 C 375.793 1001.41 374.819 1002.52 379.268 1000.67 z"/>
<path transform="translate(0,0)" fill="rgb(160,184,211)" d="M 115.103 268.217 C 117.305 268.268 124.28 270.443 126.774 271.151 C 131.112 277.842 134.091 282.072 139.089 288.271 C 137.328 293.133 136.282 299.101 131.342 300.862 C 124.234 296.436 104.165 280.742 105.666 271.52 C 107.341 269.58 112.283 268.876 115.103 268.217 z"/>
<path transform="translate(0,0)" fill="rgb(218,216,219)" d="M 462.24 77.1653 C 469.86 76.6194 484.344 75.0424 491.222 78.4916 C 494.788 80.2796 495.326 87.1649 492.806 90.1684 C 489.44 89.4359 488.826 89.4763 485.553 90.2398 L 484.742 90.4343 C 475.496 92.0533 474.349 92.8347 465.726 96.7553 C 462.934 98.0248 460.893 97.296 458.501 96.0983 C 453.948 89.7029 456.505 81.8943 462.24 77.1653 z"/>
<path transform="translate(0,0)" fill="rgb(160,184,211)" d="M 234.166 290.741 L 234.738 290.886 C 236.577 293.353 236.559 303.298 236.873 307.322 C 224.48 307.449 219.585 314.387 208.088 315.759 C 194.598 303.258 210.742 293.257 222.448 291.615 C 226.287 291.077 230.328 290.898 234.166 290.741 z"/>
<path transform="translate(0,0)" fill="rgb(218,216,219)" d="M 915.807 214.026 C 928.837 221.346 932.862 225.176 938.225 238.932 C 937.2 244.755 936.817 246.878 934.615 252.318 C 926.631 248.013 918.664 241.477 913.387 234.1 C 912.167 226.404 909.62 219.708 915.807 214.026 z"/>
<path transform="translate(0,0)" fill="rgb(218,216,219)" d="M 781.918 115.7 C 783.563 116.14 788.895 119.174 791.251 120.24 C 798.496 123.519 803.927 124.889 811.642 126.575 C 811.341 133.346 811.177 140.122 811.149 146.899 C 792.95 134.691 776.761 147.112 781.918 115.7 z"/>
<path transform="translate(0,0)" fill="rgb(218,216,219)" d="M 729.915 93.3004 L 732.314 94.5947 C 732.326 95.5063 732.283 99.0784 733.294 99.3447 C 754.388 104.904 765.625 93.9633 762.926 123.362 C 747.094 111.56 720.162 121.904 729.915 93.3004 z"/>
<path transform="translate(0,0)" fill="rgb(218,216,219)" d="M 169.564 833.468 C 180.184 835.718 196.015 857.923 195.263 866.561 L 192.851 868.306 C 178.874 872.551 171.181 855.858 167.719 844.552 C 166.216 839.64 166.945 837.586 169.564 833.468 z"/>
<path transform="translate(0,0)" fill="rgb(218,216,219)" fill-opacity="0.988235" d="M 1035.86 452.014 C 1041.17 451.804 1046.63 451.067 1050.05 455.809 C 1050.81 459.845 1053.05 489.44 1052.05 491.925 L 1038.68 490.973 C 1038.18 481.913 1034.97 458.658 1035.86 452.014 z"/>
<path transform="translate(0,0)" fill="rgb(218,216,219)" d="M 713.521 1016.42 C 717.588 1016.01 723.717 1016.58 727.951 1016.84 C 729.591 1022.15 731.088 1024.44 728.796 1028.95 C 725.347 1031.47 716.485 1032.3 711.851 1033.04 C 707.307 1034.83 705.185 1036.58 699.96 1038.11 C 696.984 1036.61 695.741 1032.29 695.482 1029.17 C 695.205 1025.88 696.359 1022.63 698.649 1020.25 C 702.624 1016.06 707.942 1016.6 713.521 1016.42 z"/>
<path transform="translate(0,0)" fill="rgb(213,213,215)" d="M 616.054 1037.12 C 619.444 1037.92 619.838 1038.2 620.518 1042.02 C 618.823 1048.09 620.263 1055.43 617.351 1058.68 C 615.509 1057.42 614.659 1055.34 613.533 1053.32 C 609.851 1052.23 598.033 1058.18 593.238 1057.88 C 585.196 1057.38 588.091 1042.57 588.5 1037.04 C 592.66 1038.64 597.019 1039.67 601.457 1040.09 C 606.708 1040.64 611.879 1040.54 616.054 1037.12 z"/>
<path transform="translate(0,0)" fill="rgb(213,213,215)" d="M 243.883 190.01 C 246.949 193.121 242.904 195.433 244.417 199.254 C 246.741 200.668 250.756 199.328 255.321 199.871 C 258.532 201.991 257.443 200.85 259.316 204.46 L 258.496 205.979 C 253.255 207.035 253.414 205.196 249.331 204.794 C 245.211 204.389 238.111 212.596 234.367 215.866 C 233.639 216.823 232.883 217.758 232.1 218.67 C 229.768 221.354 228.513 221.799 225.038 222.025 C 222.89 221.2 221.192 220.817 220.417 218.433 C 216.393 206.054 236.216 193.881 243.883 190.01 z"/>
<path transform="translate(0,0)" fill="rgb(218,216,219)" d="M 431.656 86.1204 L 432.799 85.9079 C 436.883 89.4414 436.531 97.2 437.023 102.94 C 426.692 106.494 418.091 107.382 407.407 108.89 L 405.983 109.253 C 403.497 107.015 401.808 97.4644 400.86 93.5912 C 413.05 92.3047 422.021 93.5236 431.656 86.1204 z"/>
<path transform="translate(0,0)" fill="rgb(218,216,219)" d="M 829.311 145.298 C 834.018 146.481 858.455 160.834 860.154 166.915 C 859.579 170.772 860.222 169.714 858.176 172.306 C 844.386 175.529 838.17 170.298 827.846 161.859 C 827.203 155.34 825.743 150.379 829.311 145.298 z"/>
<path transform="translate(0,0)" fill="rgb(218,216,219)" d="M 281.914 953.922 C 289.198 953.576 296.445 955.139 302.937 958.458 C 313.18 963.663 316.273 971.823 310.777 982.168 C 300.304 978.826 278.947 967.317 281.914 953.922 z"/>
<path transform="translate(0,0)" fill="rgb(218,216,219)" d="M 945.094 258.443 C 953.923 260.401 961.977 259.373 967.861 268.8 C 972.487 276.212 972.164 283.597 970.602 291.878 C 958.583 291.491 944.974 271.171 945.094 258.443 z"/>
<path transform="translate(0,0)" fill="rgb(218,216,219)" d="M 429.431 1023.5 C 436.964 1024.47 456.243 1024.77 463.859 1024.51 C 464.002 1030.6 464.134 1034.33 463.367 1040.45 C 453.408 1039.8 433.477 1041.28 428.209 1033.23 C 427.617 1028.9 428.14 1027.72 429.431 1023.5 z"/>
<path transform="translate(0,0)" fill="rgb(160,184,211)" d="M 891.894 976.458 L 910.388 976.017 C 912.813 981.388 915.145 984.064 912.159 989.334 C 908.724 991.773 902.632 992.061 898.256 992.64 C 894.65 993.493 885.238 995.485 882.503 993.605 C 880.021 988.183 879.892 984.226 881.129 978.449 C 883.318 976.381 888.276 976.73 891.894 976.458 z"/>
<path transform="translate(0,0)" fill="rgb(213,213,215)" d="M 205.34 876.263 C 211.909 879.009 230.132 897.644 228.075 906.166 C 225.484 909.079 222.377 908.139 217.212 908.647 L 215.728 909.364 C 212.223 907.815 213.447 904.917 211.608 901.643 C 211.905 902.172 205.595 897.693 205.302 897.477 C 205.174 895.143 205.092 894.808 204.226 892.635 C 200.989 889.743 202.507 891.404 196.795 890.948 C 195.618 885.994 201.557 883.382 204.9 877.105 L 205.34 876.263 z"/>
<path transform="translate(0,0)" fill="rgb(213,213,215)" d="M 824.525 967.166 L 827.11 968.83 C 833.517 979.53 811.876 995.517 800.663 994.557 C 799.13 994.304 799.114 994.031 797.778 993.048 C 796.906 990.223 795.751 987.096 797.378 984.404 C 800.738 978.844 818.503 969.284 824.525 967.166 z"/>
<path transform="translate(0,0)" fill="rgb(218,216,219)" d="M 329.586 127.746 C 330.522 127.933 331.871 128.454 332.816 128.777 C 334.102 133.531 336.325 134.391 337.421 136.843 C 341.742 146.514 315.425 155.741 309.272 158.233 C 306.353 155.62 304.762 152.417 304.239 148.576 C 306.364 138.095 324.216 139.081 330.336 133.891 C 330.196 131.516 330 130.092 329.586 127.746 z"/>
<path transform="translate(0,0)" fill="rgb(218,216,219)" d="M 386.393 104.784 C 389.091 108.808 387.363 115.246 386.56 119.943 C 377.99 123.113 375.21 123.348 366.11 125.089 L 365.677 126.66 C 367.341 128.36 368.725 129.331 369.076 131.596 C 367.308 133.502 365.158 133.485 362.459 133.967 C 361.869 133.622 361.504 133.452 361.057 132.922 C 342.746 111.213 377.703 111.073 386.393 104.784 z"/>
<path transform="translate(0,0)" fill="rgb(218,216,219)" d="M 873.6 176.264 C 884.23 177.675 904.277 198.476 903.977 208.131 C 901.757 207.89 899.544 207.589 897.34 207.23 C 888.195 205.676 878.23 197.043 872.857 189.542 C 872.785 185.332 873.277 180.511 873.6 176.264 z"/>
<path transform="translate(0,0)" fill="rgb(213,213,215)" d="M 205.858 236.366 C 209.544 236.341 209.041 235.717 211.26 237.802 C 212.173 244.835 196.233 264.928 190.522 268.42 C 187.51 265.058 183.912 260.368 180.986 256.784 C 187.156 250.655 192.045 243.173 199.196 237.935 C 201.212 236.458 203.344 236.676 205.858 236.366 z"/>
<path transform="translate(0,0)" fill="rgb(218,216,219)" d="M 681.45 83.6327 C 693.137 85.2616 715.924 79.609 711.467 99.2985 L 708.584 100.59 C 695.411 98.5767 671.527 104.468 681.45 83.6327 z"/>
<path transform="translate(0,0)" fill="rgb(218,216,219)" d="M 81.7064 477.224 C 86.5925 477.432 91.4034 476.889 96.2739 476.464 C 93.1808 487.399 94.8686 493.243 94.5639 504.344 C 94.5271 505.684 91.8038 507.763 90.6762 508.669 L 89.8683 509.313 L 91.0501 510.593 C 91.8891 512.613 91.7117 511.551 91.3119 513.913 L 88.4814 515.035 C 84.6044 514.159 82.7821 513.36 81.9928 508.952 C 80.2233 499.068 81.6403 487.355 81.7064 477.224 z"/>
<path transform="translate(0,0)" fill="rgb(218,216,219)" d="M 137.788 319.897 C 141.334 321.702 142.872 323.398 145.75 326.115 C 150.031 326.273 149.732 325.742 152.112 328.009 L 151.465 329.787 L 149.171 330.542 C 147.437 329.058 146.803 328.162 144.652 327.921 C 139.733 334.17 146.854 339.15 136.908 352.581 C 134.593 356.399 133.784 357.86 129.891 358.832 L 128.108 357.466 C 123.949 347.012 130.917 328.294 137.788 319.897 z"/>
<path transform="translate(0,0)" fill="rgb(213,213,215)" d="M 115.053 368.573 C 118.48 374.367 119.724 374.343 125.17 378.063 C 123.233 383.732 117.663 403.891 115.57 406.493 C 112.829 407.254 112.302 407.359 109.462 407.368 C 107.295 406.054 106.091 405.711 105.407 402.732 C 103.793 395.699 111.989 374.757 115.053 368.573 z"/>
<path transform="translate(0,0)" fill="rgb(218,216,219)" d="M 1040.78 667.76 C 1042.33 668.054 1042.71 668.296 1044.15 668.873 C 1045.3 674.2 1045.23 699.894 1041.69 702.313 C 1039.14 701.326 1037.04 700.57 1034.43 699.729 L 1032.53 703.718 L 1030.83 703.699 C 1027.21 698.842 1029.47 684.966 1031.37 679.447 C 1033.58 673.041 1034.96 670.735 1040.78 667.76 z"/>
<path transform="translate(0,0)" fill="rgb(218,216,219)" d="M 981.235 299.382 C 988.005 300.363 988.588 302.028 993.682 306.379 C 995.79 312.288 1003.27 327.755 1002.56 331.44 C 988.017 332.2 989.403 335.635 983.203 319.316 C 980.233 311.498 980.904 307.491 981.235 299.382 z"/>
<path transform="translate(0,0)" fill="rgb(213,213,215)" d="M 997.233 769.101 C 1000.93 770.49 1005.43 774.451 1008.3 777.217 C 1010.83 783.636 1003.32 796.084 1000.18 803.653 L 1000.01 805.04 L 998.023 806.529 C 981.418 805.957 996.692 779.605 997.214 769.554 L 997.233 769.101 z"/>
<path transform="translate(0,0)" fill="rgb(213,213,215)" d="M 907.403 900.565 C 922.934 905.754 901.743 929.1 893.922 933.106 C 890.943 932.179 887.68 929.361 887.632 926.273 C 887.463 915.526 901.46 908.818 907.403 900.565 z"/>
<path transform="translate(0,0)" fill="rgb(218,216,219)" d="M 1042.25 617.793 L 1043.08 616.372 C 1047.61 615.342 1057.9 615.287 1060.44 619.851 C 1058.46 624.633 1056.51 629.078 1054.4 633.81 C 1052.05 639.059 1052.66 650.532 1047.36 653.555 C 1045.35 653.111 1045.46 653.1 1044.11 651.711 C 1042.85 650.814 1040.3 649.482 1038.85 648.667 C 1040.09 647.768 1041.34 646.88 1042.6 646.002 C 1046.11 638.894 1044.32 625.111 1042.25 617.793 z"/>
<path transform="translate(0,0)" fill="rgb(218,216,219)" d="M 1022.25 717.342 C 1028.49 720.22 1026.95 737.74 1027.08 743.56 C 1027.31 754.345 1023.97 748.895 1020.27 752.507 C 1019.97 755.832 1019.93 756.531 1018.72 759.762 C 1003.46 758.296 1019.26 724.597 1022.25 717.342 z"/>
<path transform="translate(0,0)" fill="rgb(218,216,219)" fill-opacity="0.988235" d="M 1027.73 433.628 C 1025.64 425.663 1021.91 411.523 1023.58 404.083 C 1025.29 401.788 1025.69 401.668 1028.4 400.674 C 1037.23 402.489 1033.22 416.91 1037.39 421.379 L 1040.42 421.257 C 1043.65 424.298 1043.37 428.682 1040.48 431.905 L 1037.12 432.062 C 1033.74 432.437 1033.38 432.657 1030.61 434.649 L 1027.73 433.628 z"/>
<path transform="translate(0,0)" fill="rgb(218,216,219)" d="M 1005.4 352.226 C 1010.84 352.501 1012.89 355.315 1018.1 358.316 C 1019.98 367.276 1022.14 372.91 1025.3 381.432 L 1024.14 383.95 C 1021.34 384.63 1020.46 384.517 1017.63 384.467 C 1006.44 380.375 1004.01 362.447 1005.4 352.226 z"/>
<path transform="translate(0,0)" fill="rgb(213,213,215)" fill-opacity="0.988235" d="M 98.4568 423.433 C 100.999 423.51 101.48 423.661 103.911 424.438 C 108.066 430.065 104.587 448.531 101.994 454.777 C 101.007 457.155 98.2197 457.291 96.0185 457.871 C 91.8281 458.439 91.3263 458.433 88.7499 455.455 C 87.4523 447.789 92.2269 446.165 94.2705 439.983 C 96.0722 434.533 94.8596 428.507 98.4568 423.433 z"/>
<path transform="translate(0,0)" fill="rgb(218,216,219)" d="M 114.474 745.718 C 129.443 745.504 127.667 760.719 133.339 771.163 C 134.842 773.929 134.656 774.276 133.562 776.82 C 115.812 775.548 114.511 760.546 114.474 745.718 z"/>
<path transform="translate(0,0)" fill="rgb(218,216,219)" d="M 96.1644 691.584 C 100.18 692.392 103.669 692.793 106.828 695.423 C 112.569 700.202 110.957 709.057 112.646 715.584 C 113.74 719.81 115.193 718.511 115.64 723.959 C 112.974 723.734 108.871 723.659 106.988 721.908 C 97.6797 713.254 97.0058 703.227 96.1644 691.584 z"/>
<path transform="translate(0,0)" fill="rgb(213,213,215)" d="M 267.055 170.41 C 279.245 167.333 284.509 160.031 293.284 162.396 C 297.772 168.404 282.847 179.747 277.922 181.993 C 276.227 181.254 273.589 181.275 271.666 181.156 C 268.076 176.962 265.789 175.838 267.055 170.41 z"/>
<path transform="translate(0,0)" fill="rgb(218,216,219)" fill-opacity="0.988235" d="M 80.3222 583.421 L 83.5958 583.986 C 88.9029 588.022 88.1303 601.205 90.3936 608.806 C 92.0498 607.138 93.5386 598.87 94.1954 596.049 C 94.8444 602.568 94.9575 606.832 94.9556 613.356 C 86.2001 615.015 90.3787 618.728 83.0768 621.02 L 81.7085 619.651 C 80.1629 614.341 78.7656 588.411 80.3222 583.421 z"/>
<path transform="translate(0,0)" fill="rgb(218,216,219)" fill-opacity="0.988235" d="M 1063.11 559.8 C 1062.97 569.377 1064.75 589.451 1060.64 597.184 C 1059.77 596.991 1058.66 596.499 1057.8 596.162 C 1057 593.501 1056.8 592.269 1054.93 590.116 C 1051.36 589.265 1052.5 589.473 1048.45 591.892 C 1046.54 590.673 1047.12 590.829 1046.3 587.899 L 1047.26 586.361 C 1061.9 581.766 1049.31 576.403 1053.61 568.254 C 1056.29 565.207 1059.94 562.404 1063.11 559.8 z"/>
<path transform="translate(0,0)" fill="rgb(218,216,219)" fill-opacity="0.988235" d="M 90.0966 633.588 C 90.5711 633.781 91.464 634.659 91.9126 635.05 C 91.8253 645.151 98.2542 662.451 95.809 674.064 C 95.4827 675.614 93.0187 675.949 91.2928 676.488 C 89.1545 671.848 84.5896 652.247 83.0558 646.272 C 87.3312 641.408 88.2408 639.757 90.0966 633.588 z"/>
<path transform="translate(0,0)" fill="rgb(146,146,140)" d="M 136.107 791.699 C 146.659 792.579 161.134 804.766 156.336 817.593 C 146.955 820.633 145.825 813.99 142.003 806.951 C 139.3 801.973 137.341 797.243 136.107 791.699 z"/>
<path transform="translate(0,0)" fill="rgb(218,216,219)" fill-opacity="0.988235" d="M 82.6584 530.755 C 93.879 534.123 91.5508 563.589 81.56 566.81 C 80.6473 557.856 81.6498 548.402 79.8563 539.607 C 79.5709 538.207 76.4348 536.541 75.1095 535.796 L 74.1753 535.276 L 74.2598 533.464 L 77.4772 534.184 C 79.4792 532.557 80.4036 532.046 82.6584 530.755 z"/>
<path transform="translate(0,0)" fill="rgb(213,213,215)" fill-opacity="0.858824" d="M 1060.64 597.184 C 1056.83 599.622 1053.56 601.536 1049.01 599.638 C 1042.86 594.091 1042.13 572.137 1046.16 565.78 C 1046.42 567.267 1046.43 567.169 1047.31 568.415 C 1050.47 569.771 1049.61 569.334 1053.61 568.254 C 1049.31 576.403 1061.9 581.766 1047.26 586.361 L 1046.3 587.899 C 1047.12 590.829 1046.54 590.673 1048.45 591.892 C 1052.5 589.473 1051.36 589.265 1054.93 590.116 C 1056.8 592.269 1057 593.501 1057.8 596.162 C 1058.66 596.499 1059.77 596.991 1060.64 597.184 z"/>
<path transform="translate(0,0)" fill="rgb(213,213,215)" fill-opacity="0.266667" d="M 81.56 566.81 C 77.4418 565.988 75.914 566.588 73.4897 563.982 C 73.142 558.728 70.9141 533.604 72.7649 530.695 C 75.2495 529.863 75.6911 529.8 78.2647 530.159 L 82.6584 530.755 C 80.4036 532.046 79.4792 532.557 77.4772 534.184 L 74.2598 533.464 L 74.1753 535.276 L 75.1095 535.796 C 76.4348 536.541 79.5709 538.207 79.8563 539.607 C 81.6498 548.402 80.6473 557.856 81.56 566.81 z"/>
<path transform="translate(0,0)" fill="rgb(213,213,215)" fill-opacity="0.223529" d="M 1042.25 617.793 C 1044.32 625.111 1046.11 638.894 1042.6 646.002 C 1041.34 646.88 1040.09 647.768 1038.85 648.667 C 1040.3 649.482 1042.85 650.814 1044.11 651.711 C 1041.56 651.691 1041.13 651.591 1038.68 650.845 C 1031.08 642.412 1041.21 626.485 1042.14 618.748 L 1042.25 617.793 z"/>
<path transform="translate(0,0)" fill="rgb(213,213,215)" fill-opacity="0.0745098" d="M 616.054 1037.12 C 615.664 1033.77 615.139 1034.15 616.529 1031.94 C 630.167 1030.16 628.485 1040.97 627.099 1050.62 L 625.814 1051.46 C 619.647 1047.03 623.472 1045.69 620.518 1042.02 C 619.838 1038.2 619.444 1037.92 616.054 1037.12 z"/>
<path transform="translate(0,0)" fill="rgb(213,213,215)" fill-opacity="0.686275" d="M 1027.73 433.628 L 1030.61 434.649 C 1033.38 432.657 1033.74 432.437 1037.12 432.062 L 1035.09 434.62 L 1035.57 436.767 C 1038 437.948 1040.46 439.063 1042.95 440.111 L 1043.47 441.793 C 1041.38 444.368 1041.1 444.69 1037.96 445.684 C 1031.53 444.493 1029.92 439.205 1027.73 433.628 z"/>
</svg>